<svg width="180" height="115" viewBox="0 0 180 115" fill="none" xmlns="http://www.w3.org/2000/svg">
<path d="M0 93.5661V90.3845C0 89.9615 0.214617 89.7484 0.634192 89.7484H18.1641C18.6083 89.7484 18.8315 89.9636 18.8315 90.3845V93.5661C18.8315 94.0131 18.609 94.2366 18.1641 94.2366H11.7535V113.933C11.7535 114.379 11.5417 114.602 11.1182 114.603H7.51158C7.08879 114.603 6.87739 114.38 6.87739 113.933V94.2366H0.634192C0.211397 94.2366 0 94.0131 0 93.5661Z" fill="black"/>
<path d="M25.1101 90.5513V100.131C25.334 99.8169 25.6107 99.5448 25.9278 99.3266C26.3198 99.0448 26.7394 98.8039 27.1801 98.6076C27.6627 98.3894 28.166 98.2206 28.6824 98.1038C29.2083 97.983 29.7461 97.9216 30.2856 97.9209C31.2078 97.9072 32.1223 98.0906 32.9683 98.459C33.7408 98.8039 34.4298 99.3125 34.9878 99.9497C35.5571 100.607 35.9944 101.369 36.2755 102.193C36.5809 103.082 36.7443 104.015 36.7595 104.956C36.756 105.079 36.7672 105.203 36.7928 105.324V113.763C36.8 113.878 36.7828 113.992 36.7425 114.099C36.7022 114.206 36.6396 114.303 36.5588 114.384C36.3946 114.532 36.1793 114.609 35.959 114.6H33.1894C32.8771 114.6 32.6657 114.532 32.5552 114.399C32.4446 114.267 32.3878 114.064 32.3878 113.796V105.321C32.3947 104.896 32.317 104.475 32.1593 104.081C32.0016 103.687 31.7669 103.329 31.4692 103.027C31.1813 102.718 30.8318 102.474 30.4436 102.31C30.0554 102.145 29.637 102.065 29.2157 102.073C28.7542 102.08 28.297 102.165 27.8637 102.324C27.3861 102.491 26.9359 102.728 26.5277 103.027C26.1283 103.315 25.7834 103.673 25.5093 104.083C25.2513 104.457 25.1122 104.9 25.1101 105.355V113.858C25.1101 114.171 25.0028 114.371 24.7753 114.461C24.5527 114.551 24.3147 114.597 24.0746 114.595H21.6065C21.027 114.595 20.7377 114.338 20.7384 113.825V90.5513C20.7275 90.3376 20.799 90.128 20.938 89.9657C21.0173 89.8893 21.1118 89.8306 21.2154 89.7935C21.319 89.7564 21.4293 89.7417 21.5389 89.7505H24.2774C24.4902 89.7415 24.7004 89.7998 24.8783 89.9173C25.0307 90.0282 25.1101 90.2391 25.1101 90.5513Z" fill="black"/>
<path d="M47.1791 111.014C47.6656 111.037 48.1521 110.969 48.6138 110.814C49.0878 110.657 49.5465 110.457 49.9842 110.216C50.1589 110.129 50.3261 110.029 50.4842 109.914C50.6069 109.816 50.7567 109.758 50.9134 109.748C51.0159 109.75 51.116 109.779 51.2039 109.832C51.2918 109.884 51.3644 109.959 51.4146 110.049L52.6497 112.025C52.7421 112.151 52.7998 112.3 52.8171 112.456C52.8219 112.623 52.7619 112.785 52.6497 112.909C52.5358 113.034 52.4132 113.152 52.2827 113.26C51.5744 113.793 50.793 114.222 49.9627 114.532C49.102 114.849 48.1915 115.008 47.2746 115.001C46.1441 115.007 45.0245 114.779 43.9856 114.332C42.9757 113.901 42.0577 113.28 41.2815 112.502C40.5028 111.717 39.8798 110.79 39.4454 109.772C38.9966 108.722 38.7637 107.593 38.7608 106.45C38.7578 105.308 38.9848 104.177 39.4282 103.125C39.8594 102.108 40.4701 101.177 41.231 100.378C41.9825 99.5896 42.8779 98.9531 43.8687 98.5032C44.8751 98.0447 45.9686 97.8104 47.074 97.8165C48.117 97.811 49.1505 98.016 50.1129 98.4192C51.0462 98.8065 51.9006 99.3625 52.6336 100.06C53.3544 100.749 53.933 101.574 54.3366 102.488C54.7494 103.421 54.9597 104.431 54.9536 105.452C54.9536 106.324 54.8817 106.959 54.739 107.345C54.5963 107.732 54.2776 107.931 53.7882 107.931H43.4051C43.4412 108.395 43.5904 108.843 43.8397 109.236C44.0799 109.611 44.3852 109.939 44.7411 110.205C45.0982 110.474 45.4995 110.678 45.9268 110.809C46.3317 110.94 46.7538 111.009 47.1791 111.014ZM43.4051 104.684H50.584C50.5389 103.846 50.1773 103.129 49.4991 102.532C48.8209 101.935 47.9807 101.637 46.9785 101.637C46.567 101.64 46.1596 101.718 45.7766 101.869C45.3767 102.023 45.0045 102.241 44.6745 102.515C44.3418 102.789 44.0593 103.12 43.8397 103.492C43.6205 103.858 43.4729 104.263 43.4051 104.684Z" fill="black"/>
<path d="M73.6904 108.805C74.1346 108.469 74.4923 108.469 74.7635 108.805L76.4321 111.65C76.6102 111.853 76.6768 112.025 76.6328 112.17C76.5581 112.354 76.4303 112.512 76.2658 112.622C75.288 113.348 74.2076 113.924 73.0605 114.331C71.8801 114.755 70.5334 114.967 69.0203 114.967C67.311 114.977 65.6179 114.635 64.0455 113.962C62.5208 113.316 61.1326 112.384 59.9549 111.217C58.78 110.046 57.8443 108.657 57.2003 107.127C56.5294 105.552 56.1872 103.856 56.1948 102.143C56.1799 100.427 56.5208 98.727 57.196 97.1502C58.5108 94.0824 60.9665 91.6498 64.0412 90.3694C65.6163 89.7077 67.3084 89.3717 69.016 89.3813C70.5291 89.3813 71.8758 89.5876 73.0562 90.0002C74.2132 90.4015 75.3051 90.9712 76.2969 91.6911C76.475 91.8482 76.5641 92.0047 76.5641 92.1604C76.5697 92.2865 76.547 92.4123 76.4976 92.5285L74.728 95.5422C74.5277 95.8113 74.2158 95.8224 73.7923 95.5756C73.0731 95.1147 72.3064 94.7329 71.5056 94.4368C70.7057 94.1601 69.8642 94.0243 69.0182 94.0353C67.9406 94.0238 66.8722 94.2348 65.8794 94.6553C64.9419 95.0533 64.0954 95.6393 63.392 96.3774C62.6833 97.1259 62.1225 98.0025 61.7394 98.9606C61.3318 99.9715 61.1265 101.053 61.1353 102.143C61.1268 103.239 61.3313 104.325 61.7373 105.342C62.1202 106.309 62.6807 107.195 63.3898 107.954C64.0942 108.705 64.9396 109.308 65.8772 109.73C66.8646 110.172 67.9352 110.394 69.016 110.383C69.8984 110.388 70.7746 110.235 71.6032 109.931C72.3515 109.663 73.0551 109.283 73.6904 108.805Z" fill="black"/>
<path d="M90.585 113.694C90.541 113.472 90.5077 113.286 90.4852 113.141C90.4627 112.996 90.4294 112.818 90.3854 112.589C90.1844 112.876 89.9615 113.166 89.7169 113.46C89.4677 113.754 89.1749 114.008 88.8487 114.213C88.4845 114.439 88.0914 114.614 87.6802 114.733C87.1583 114.876 86.6189 114.943 86.078 114.933H86.0104C84.892 114.946 83.7833 114.723 82.7558 114.28C81.7883 113.862 80.9182 113.246 80.2008 112.472C79.4794 111.687 78.9131 110.772 78.5321 109.776C78.1231 108.707 77.9189 107.571 77.9301 106.426C77.9202 105.278 78.1184 104.138 78.515 103.061C78.8814 102.063 79.4437 101.148 80.1686 100.371C80.8888 99.6044 81.758 98.9945 82.7225 98.5785C83.7612 98.1338 84.8811 97.9116 86.0104 97.9262C87.1908 97.9262 88.109 98.1605 88.765 98.6291C89.4258 99.1011 90.0161 99.665 90.5185 100.304L90.8522 99.0219C90.9402 98.642 91.0411 98.3912 91.1527 98.2685C91.2643 98.1458 91.4746 98.0834 91.7879 98.0834L93.6572 98.1501C93.9026 98.1504 94.1395 98.2395 94.3247 98.4009C94.4215 98.4792 94.499 98.579 94.5512 98.6923C94.6033 98.8056 94.6286 98.9295 94.6251 99.0542V113.756C94.631 113.876 94.6066 113.996 94.5541 114.105C94.5016 114.213 94.4227 114.307 94.3247 114.377C94.1312 114.519 93.8971 114.594 93.6572 114.592H91.5196C91.1856 114.592 90.9574 114.508 90.835 114.341C90.7035 114.148 90.618 113.926 90.585 113.694ZM82.2718 106.46C82.266 107.053 82.3618 107.642 82.5551 108.202C82.7338 108.719 83.0116 109.197 83.3728 109.608C83.7248 110.007 84.1575 110.327 84.6423 110.546C85.1572 110.775 85.7155 110.889 86.2787 110.881C87.5242 110.881 88.5089 110.462 89.2329 109.625C89.9569 108.787 90.3189 107.744 90.3189 106.494C90.3208 105.909 90.2303 105.328 90.0506 104.772C89.8826 104.241 89.6104 103.75 89.2501 103.327C88.8984 102.92 88.4661 102.59 87.9806 102.359C87.4461 102.115 86.8637 101.994 86.2766 102.007C85.707 102.001 85.1431 102.121 84.6251 102.359C84.1363 102.584 83.7031 102.915 83.3567 103.327C83.0063 103.75 82.7348 104.232 82.5551 104.751C82.3634 105.3 82.2676 105.879 82.2718 106.46Z" fill="black"/>
<path d="M100.267 98.1544C100.601 98.1544 100.853 98.2104 101.018 98.3213C101.188 98.438 101.321 98.6007 101.402 98.7905C101.496 99.0104 101.563 99.241 101.602 99.4772C101.647 99.7345 101.702 100.008 101.769 100.298C102.281 99.7173 102.971 99.1812 103.839 98.6904C104.738 98.1915 105.751 97.9373 106.778 97.9532C107.823 97.9532 108.747 98.1207 109.549 98.4558C110.316 98.7673 111.01 99.2349 111.588 99.8292C112.155 100.428 112.587 101.141 112.856 101.922C113.151 102.778 113.296 103.679 113.285 104.585V113.795C113.285 114.108 113.218 114.32 113.085 114.431C112.952 114.541 112.751 114.599 112.484 114.599H109.412C109.054 114.599 108.837 114.548 108.761 114.447C108.686 114.346 108.646 114.139 108.643 113.828V105.355C108.643 104.44 108.354 103.709 107.776 103.161C107.198 102.614 106.475 102.341 105.605 102.341C105.223 102.347 104.845 102.426 104.492 102.574C104.103 102.73 103.738 102.938 103.406 103.193C103.072 103.45 102.785 103.762 102.555 104.115C102.326 104.459 102.172 104.847 102.104 105.254V113.864C102.104 114.155 102.048 114.351 101.937 114.45C101.825 114.549 101.603 114.602 101.269 114.602H98.2645C97.9311 114.602 97.714 114.546 97.6131 114.434C97.5133 114.326 97.4629 114.132 97.4629 113.864V99.1597C97.4629 98.4888 97.7966 98.1537 98.4641 98.1544H100.267Z" fill="black"/>
<path d="M132.99 108.805C133.435 108.469 133.793 108.469 134.063 108.805L135.731 111.65C135.91 111.853 135.976 112.025 135.931 112.17C135.857 112.355 135.729 112.512 135.564 112.622C134.586 113.348 133.507 113.924 132.36 114.331C131.178 114.755 129.831 114.967 128.319 114.967C126.609 114.977 124.916 114.635 123.344 113.962C121.82 113.315 120.432 112.383 119.254 111.217C118.079 110.047 117.143 108.657 116.5 107.127C115.829 105.549 115.489 103.851 115.498 102.136C115.484 100.421 115.825 98.7224 116.5 97.147C117.494 94.8326 119.144 92.8622 121.245 91.4808C123.346 90.0994 125.806 89.3678 128.319 89.377C129.832 89.377 131.179 89.5833 132.36 89.9959C133.516 90.3977 134.607 90.9678 135.597 91.6879C135.777 91.845 135.866 92.0014 135.866 92.1572C135.871 92.2833 135.848 92.4091 135.799 92.5253L134.03 95.539C133.828 95.8081 133.516 95.8192 133.095 95.5723C132.375 95.1118 131.608 94.7301 130.807 94.4336C130.007 94.1568 129.165 94.021 128.319 94.0321C127.241 94.0206 126.173 94.2316 125.181 94.6521C124.243 95.0503 123.396 95.6363 122.692 96.3742C121.984 97.1231 121.424 97.9995 121.041 98.9574C120.635 99.9678 120.43 101.048 120.44 102.138C120.431 103.233 120.635 104.32 121.041 105.337C121.424 106.303 121.984 107.189 122.692 107.949C123.397 108.699 124.243 109.303 125.181 109.725C126.168 110.166 127.238 110.389 128.319 110.377C129.201 110.382 130.078 110.229 130.907 109.925C131.653 109.659 132.355 109.281 132.99 108.805Z" fill="black"/>
<path d="M136.896 106.426C136.891 105.293 137.111 104.171 137.544 103.124C137.977 102.078 138.613 101.128 139.416 100.332C140.21 99.5477 141.144 98.9223 142.171 98.4892C143.756 97.8181 145.503 97.635 147.192 97.9631C148.881 98.2913 150.434 99.1158 151.654 100.332C152.438 101.122 153.067 102.054 153.507 103.078C153.965 104.134 154.198 105.274 154.192 106.426C154.2 107.574 153.966 108.711 153.507 109.763C152.62 111.814 150.974 113.441 148.915 114.3C146.755 115.193 144.331 115.193 142.171 114.3C141.147 113.868 140.213 113.248 139.416 112.471C138.612 111.685 137.974 110.745 137.541 109.706C137.108 108.667 136.888 107.551 136.896 106.425V106.426ZM141.336 106.46C141.333 107.04 141.443 107.614 141.658 108.151C141.862 108.667 142.162 109.138 142.542 109.541C142.919 109.942 143.374 110.261 143.878 110.479C144.407 110.7 144.975 110.814 145.548 110.814C146.121 110.814 146.689 110.7 147.218 110.479C147.721 110.26 148.176 109.941 148.553 109.541C148.933 109.136 149.239 108.665 149.454 108.151C149.899 107.068 149.899 105.852 149.454 104.768C149.238 104.255 148.933 103.785 148.553 103.379C148.174 102.977 147.72 102.653 147.218 102.425C146.691 102.193 146.123 102.073 145.548 102.073C144.973 102.073 144.404 102.193 143.878 102.425C143.375 102.653 142.921 102.977 142.542 103.379C142.163 103.782 141.863 104.253 141.658 104.768C141.443 105.306 141.333 105.881 141.336 106.46Z" fill="black"/>
<path d="M155.49 93.2658C155.491 92.7542 155.644 92.2546 155.928 91.8298C156.212 91.405 156.615 91.0739 157.086 90.8783C157.558 90.6828 158.076 90.6313 158.576 90.7306C159.077 90.8298 159.536 91.0752 159.898 91.436C160.137 91.6757 160.325 91.9613 160.451 92.2758C160.577 92.5902 160.639 92.9269 160.632 93.2658C160.639 93.6015 160.578 93.9351 160.451 94.2461C160.325 94.557 160.137 94.8388 159.898 95.074C159.406 95.5471 158.751 95.8112 158.069 95.8112C157.388 95.8112 156.733 95.5471 156.241 95.074C155.998 94.8412 155.805 94.5603 155.676 94.249C155.547 93.9378 155.483 93.6029 155.49 93.2658ZM160.426 98.9584V113.828C160.426 114.341 160.147 114.599 159.592 114.599H156.687C156.174 114.599 155.918 114.342 155.919 113.828V98.9584C155.908 98.7442 155.98 98.534 156.12 98.3719C156.193 98.2973 156.282 98.2395 156.38 98.2023C156.478 98.1652 156.583 98.1496 156.687 98.1566H159.592C159.8 98.1591 160.001 98.2353 160.159 98.3719C160.247 98.441 160.318 98.5302 160.366 98.6321C160.414 98.7341 160.437 98.8459 160.433 98.9584H160.426Z" fill="black"/>
<path d="M166.977 98.1544C167.31 98.1544 167.563 98.2104 167.728 98.3213C167.898 98.438 168.031 98.6007 168.112 98.7905C168.206 99.0104 168.273 99.241 168.312 99.4772C168.357 99.7345 168.411 100.008 168.479 100.298C168.991 99.7173 169.681 99.1812 170.549 98.6904C171.448 98.1915 172.461 97.9373 173.488 97.9532C174.533 97.9532 175.457 98.1207 176.259 98.4558C177.026 98.7673 177.72 99.2349 178.298 99.8292C178.865 100.428 179.297 101.141 179.566 101.922C179.863 102.778 180.01 103.679 180.001 104.585V113.795C180.001 114.108 179.933 114.32 179.8 114.431C179.625 114.555 179.413 114.614 179.199 114.599H176.127C175.769 114.599 175.552 114.548 175.477 114.447C175.401 114.346 175.361 114.139 175.359 113.828V105.355C175.359 104.44 175.07 103.709 174.492 103.161C173.913 102.614 173.19 102.341 172.321 102.341C171.936 102.347 171.557 102.426 171.203 102.575C170.814 102.731 170.449 102.939 170.117 103.194C169.783 103.451 169.496 103.763 169.266 104.116C169.037 104.46 168.883 104.848 168.815 105.255V113.866C168.815 114.156 168.759 114.352 168.648 114.451C168.536 114.55 168.314 114.603 167.98 114.603H164.975C164.641 114.603 164.424 114.547 164.324 114.435C164.223 114.327 164.174 114.134 164.174 113.866V99.1597C164.174 98.4888 164.508 98.1537 165.175 98.1544H166.977Z" fill="black"/>
<path d="M139.618 60.031C138.674 60.031 137.868 60.5078 137.557 61.174L120.738 57.9343C120.678 57.0108 119.718 56.2735 118.543 56.2735C117.328 56.2735 116.341 57.0603 116.341 58.0268C116.341 58.0624 116.341 58.0968 116.347 58.1345L100.488 62.7422C100.257 62.511 99.9816 62.329 99.6784 62.2073C99.3752 62.0856 99.0506 62.0267 98.7242 62.034C97.7294 62.034 96.8871 62.5636 96.6156 63.2868H91.365L97.7477 57.8417C98.059 57.9647 98.3907 58.0275 98.7252 58.0268C99.94 58.0268 100.927 57.2401 100.927 56.2735C100.926 56.1215 100.901 55.9707 100.852 55.8268L127.143 43.0476C127.574 43.3474 128.088 43.5054 128.613 43.4997C129.826 43.4997 130.815 42.7129 130.815 41.7463C130.815 41.2082 130.511 40.7324 130.036 40.4096L136.206 29.2072C136.295 29.2158 136.385 29.2222 136.477 29.2222C137.691 29.2222 138.679 28.4354 138.679 27.4689C138.679 26.5023 137.691 25.7156 136.477 25.7156C135.264 25.7156 134.275 26.5023 134.275 27.4689C134.275 27.5326 134.28 27.5963 134.288 27.6594L120.247 32.3672C119.784 31.9418 119.175 31.7107 118.547 31.7215C117.332 31.7215 116.345 32.5082 116.345 33.4748C116.349 33.6805 116.394 33.8834 116.477 34.0714C116.56 34.2594 116.681 34.4288 116.83 34.5694L99.4088 54.6074C99.1856 54.5494 98.9559 54.5201 98.7252 54.5202C97.5116 54.5202 96.5233 55.307 96.5233 56.2735C96.5268 56.5937 96.6337 56.9042 96.828 57.1583L90.5473 62.5162V58.4542C91.4551 58.2389 92.1193 57.5673 92.1193 56.774C92.1193 56.2197 91.7974 55.7257 91.2877 55.4038L98.8862 27.9629C100.025 27.8973 100.925 27.1406 100.925 26.216C100.925 25.2474 99.9378 24.4627 98.7231 24.4627H98.7038L90.6825 3.69824C91.351 3.39687 91.8049 2.82534 91.8049 2.17094C91.8049 1.20224 90.8177 0.417603 89.603 0.417603C88.3882 0.417603 87.401 1.2044 87.401 2.17094C87.401 2.88131 87.9375 3.49266 88.7005 3.7682L81.3896 24.4649C80.192 24.4799 79.223 25.2592 79.223 26.216C79.223 27.1352 80.1158 27.8908 81.2479 27.9629L88.5707 55.3909C88.0513 55.7138 87.7122 56.2122 87.7122 56.774C87.7122 57.5673 88.3775 58.2378 89.2853 58.4542V62.4818L83.3018 57.1852C83.5076 56.9258 83.6209 56.6049 83.6238 56.2735C83.6238 55.3048 82.6354 54.5202 81.4218 54.5202C81.2416 54.5208 81.062 54.5388 80.8852 54.574L66.9974 35.9202C67.175 35.7774 67.3195 35.5975 67.4209 35.3931C67.5223 35.1886 67.578 34.9645 67.5844 34.7362C67.5844 33.7675 66.5961 32.9829 65.3824 32.9829C64.7461 32.9704 64.1301 33.2075 63.6655 33.6438L44.9252 27.6314C44.932 27.5775 44.9356 27.5232 44.9359 27.4689C44.9359 26.5002 43.9476 25.7156 42.7339 25.7156C41.5203 25.7156 40.532 26.5023 40.532 27.4689C40.532 28.4354 41.5192 29.2222 42.7339 29.2222C42.8733 29.2219 43.0125 29.2111 43.1503 29.1899L52.8402 43.9959C52.4282 44.3188 52.1706 44.7601 52.1706 45.253C52.1706 46.2217 53.1589 47.0053 54.3726 47.0053C54.9484 47.0151 55.5098 46.825 55.9618 46.4671L79.2606 55.9592C79.2358 56.0651 79.2232 56.1734 79.223 56.2821C79.223 57.2508 80.2103 58.0355 81.425 58.0355C81.7468 58.036 82.066 57.978 82.3672 57.8643L88.5052 63.2879H85.1067C84.8353 62.5646 83.9929 62.0351 82.9971 62.0351C82.2287 62.0351 81.5516 62.3515 81.1578 62.8283L64.1237 58.7792C64.1237 57.8105 63.1365 57.0259 61.9217 57.0259C60.7896 57.0259 59.855 57.7104 59.7337 58.5865L41.9581 61.159C41.6362 60.5002 40.8399 60.031 39.9031 60.031C38.6884 60.031 37.7012 60.8167 37.7012 61.7843C37.7012 62.7519 38.6884 63.5366 39.9031 63.5366C40.7723 63.5366 41.5235 63.1329 41.8819 62.5485L59.7294 68.1454C59.7235 68.195 59.7203 68.245 59.7198 68.295C59.7198 69.2637 60.7081 70.0483 61.9217 70.0483C63.1161 70.0483 64.0883 69.2874 64.1205 68.3434L81.1256 64.7065C81.5141 65.2059 82.2073 65.5407 82.9971 65.5407C83.9929 65.5407 84.8353 65.0122 85.1067 64.2889H87.9086L78.0824 69.7222L73.3447 78.9162C73.1078 78.8499 72.8631 78.8162 72.6171 78.8161C71.4024 78.8161 70.4152 79.6029 70.4152 80.5694C70.4152 81.5359 71.4024 82.3227 72.6171 82.3227C73.8319 82.3227 74.8191 81.5359 74.8191 80.5694C74.8179 80.3184 74.7513 80.072 74.6259 79.8547L83.4864 75.1512L89.9378 64.8777L96.6735 74.9122L105.914 79.7342C105.742 79.979 105.65 80.2703 105.648 80.5694C105.648 81.5381 106.636 82.3227 107.85 82.3227C109.063 82.3227 110.052 81.5359 110.052 80.5694C110.052 79.6029 109.063 78.8161 107.85 78.8161C107.685 78.8162 107.521 78.8313 107.359 78.8613L102.056 69.7125L91.9723 64.2889H96.6166C96.8881 65.0122 97.7305 65.5407 98.7252 65.5407C99.4764 65.5407 100.148 65.2361 100.549 64.7733L116.347 68.7664C116.347 68.7772 116.347 68.7869 116.347 68.7966C116.347 69.7653 117.335 70.5499 118.549 70.5499C119.764 70.5499 120.751 69.7642 120.751 68.7966C120.748 68.7177 120.739 68.6392 120.722 68.5619L137.605 62.4904C137.947 63.105 138.72 63.5355 139.618 63.5355C140.832 63.5355 141.82 62.7498 141.82 61.7832C141.82 60.8167 140.832 60.031 139.618 60.031ZM117.859 35.1463C118.083 35.2043 118.312 35.2336 118.543 35.2335C119.757 35.2335 120.745 34.4467 120.745 33.4802C120.745 33.4164 120.74 33.3528 120.731 33.2897L134.773 28.5818C134.859 28.6638 134.952 28.7383 135.05 28.8046L128.878 40.007C128.79 39.9984 128.7 39.993 128.607 39.993C127.394 39.993 126.405 40.7787 126.405 41.7463C126.406 41.8983 126.432 42.0491 126.481 42.193L100.935 54.6127L117.859 35.1463ZM82.4788 27.7552C83.1623 27.4571 83.627 26.8791 83.627 26.216C83.627 25.5939 83.216 25.0482 82.6011 24.7372L89.7103 4.59805L97.5041 24.7555C96.9139 25.0708 96.5233 25.6058 96.5233 26.2128C96.5233 26.8715 96.9815 27.4452 97.6575 27.7455L90.1041 55.0282C90.0419 55.0282 89.9807 55.0207 89.9174 55.0207C89.8541 55.0207 89.8101 55.0207 89.7607 55.0271L82.4788 27.7552ZM54.3726 43.4997C54.2332 43.4994 54.0939 43.5102 53.9562 43.532L44.2663 28.726C44.3318 28.6742 44.3945 28.6189 44.4541 28.5603L63.1901 34.5694C63.1847 34.6232 63.1805 34.677 63.1805 34.733C63.1805 35.7017 64.1677 36.4863 65.3824 36.4863C65.5626 36.4861 65.7424 36.4677 65.919 36.4315L79.7735 55.0379L56.5359 45.5662C56.5615 45.4605 56.5745 45.3521 56.5746 45.2433C56.5746 44.2854 55.5862 43.4997 54.3726 43.4997ZM63.7932 67.378C63.4047 66.8785 62.7126 66.5438 61.9217 66.5438C61.2792 66.5304 60.6575 66.7722 60.1919 67.2165L43.4518 61.963L59.9666 59.5724C60.3303 60.1407 61.0718 60.5325 61.9271 60.5325C62.6965 60.5325 63.3736 60.2161 63.7674 59.7393L80.6964 63.7626L63.7932 67.378ZM82.5099 74.4656L74.9232 78.4921L79.1082 70.3766L88.2573 65.3179L82.5099 74.4656ZM105.727 78.4394L97.6318 74.2094L91.6708 65.3329L101.059 70.3917L105.727 78.4394ZM120.204 67.6503C119.744 67.2491 119.152 67.0329 118.543 67.0432C117.792 67.0432 117.12 67.3489 116.719 67.8117L100.921 63.8186C100.921 63.8082 100.921 63.7977 100.921 63.7873C100.921 63.7518 100.921 63.7174 100.914 63.6797L116.773 59.0687C117.005 59.2998 117.28 59.4817 117.583 59.6034C117.886 59.7251 118.21 59.7841 118.536 59.777C119.347 59.777 120.054 59.425 120.437 58.9051L136.11 61.9242L120.204 67.6503Z" fill="#1AAD81"/>
<path d="M107.845 82.7404C106.401 82.7404 105.226 81.7663 105.226 80.5694C105.227 80.3446 105.268 80.1217 105.349 79.9118L96.3252 75.1404L89.9457 65.6419L83.7755 75.4676L75.1543 80.0442C75.2061 80.2145 75.2325 80.3914 75.2327 80.5694C75.2327 81.7663 74.0523 82.7404 72.6144 82.7404C71.1764 82.7404 69.996 81.7663 69.996 80.5694C69.996 79.3726 71.1764 78.3985 72.6144 78.3985C72.7837 78.3985 72.9528 78.4125 73.1198 78.4405L77.7705 69.423L86.2919 64.7119H85.3701C84.9462 65.4707 84.032 65.9637 82.9975 65.9637C82.2454 65.9782 81.5181 65.6934 80.9747 65.1715L64.4922 68.6911C64.2701 69.7093 63.2045 70.467 61.9168 70.467C60.5357 70.467 59.4015 69.5769 59.3049 68.4532L42.0401 63.035C41.555 63.6087 40.7653 63.9542 39.9025 63.9542C38.4581 63.9542 37.2842 62.9855 37.2842 61.7832C37.2842 60.581 38.4581 59.6134 39.9025 59.6134C40.8565 59.6134 41.7139 60.0342 42.1742 60.7069L59.3929 58.2131C59.6944 57.2788 60.7214 56.6072 61.9222 56.6072C63.226 56.6072 64.3119 57.4037 64.5083 58.4369L81.0177 62.3655C81.5578 61.8713 82.2654 61.6019 82.9964 61.6121C84.0309 61.6121 84.9452 62.1061 85.369 62.865H87.4079L82.27 58.3261C81.995 58.405 81.7104 58.4449 81.4244 58.4445C79.9811 58.4445 78.806 57.4758 78.806 56.2735C78.806 56.2552 78.806 56.238 78.806 56.2197L56.0224 46.9386C55.5322 47.2606 54.9579 47.4295 54.372 47.424C52.9287 47.424 51.7536 46.4499 51.7536 45.252C51.7612 44.7575 51.9556 44.2843 52.2977 43.9281L42.9415 29.6323C42.8728 29.6323 42.8041 29.6399 42.7333 29.6399C41.2889 29.6399 40.115 28.6658 40.115 27.4689C40.115 26.272 41.2889 25.2937 42.7333 25.2937C44.1197 25.2937 45.2583 26.1924 45.3462 27.3247L63.5629 33.167C64.0836 32.7644 64.7244 32.5497 65.3818 32.5578C66.8251 32.5578 68.0001 33.5318 68.0001 34.7276C67.9963 35.177 67.8349 35.6107 67.544 35.9525L81.0735 54.123C81.19 54.1097 81.3071 54.1028 81.4244 54.1026C82.8677 54.1026 84.0427 55.0713 84.0427 56.2735C84.0419 56.5633 83.9728 56.8488 83.841 57.1066L88.8716 61.5572V58.7674C87.9315 58.4273 87.2984 57.6448 87.2984 56.7773C87.3031 56.4733 87.3772 56.1744 87.515 55.9037C87.6529 55.6329 87.8508 55.3975 88.0936 55.2155L80.9189 28.345C79.7117 28.1481 78.806 27.2569 78.806 26.2161C78.806 25.1204 79.8062 24.2023 81.0896 24.0634L88.1784 3.99209C87.4422 3.59708 86.984 2.91577 86.984 2.17095C86.984 0.974075 88.159 0 89.6023 0C91.0456 0 92.2207 0.974075 92.2207 2.17095C92.2207 2.85119 91.8386 3.48299 91.2023 3.89307L98.9961 24.0623C100.321 24.1807 101.343 25.1031 101.343 26.215C101.343 27.2644 100.429 28.1524 99.2107 28.3472L91.7657 55.237C92.0008 55.4188 92.1921 55.6513 92.3253 55.9174C92.4585 56.1835 92.5302 56.4763 92.5351 56.774C92.5351 57.6415 91.903 58.424 90.963 58.7641V61.6143L96.2887 57.0689C96.1697 56.8207 96.1074 56.549 96.1063 56.2735C96.1063 55.0767 97.2813 54.1026 98.7246 54.1026C98.9044 54.1022 99.0839 54.1173 99.2612 54.1478L116.282 34.5694C116.055 34.2516 115.932 33.8711 115.929 33.4802C115.929 32.2833 117.103 31.3092 118.548 31.3092C119.193 31.302 119.823 31.5081 120.34 31.8958L133.861 27.3624C133.927 26.2139 135.075 25.298 136.475 25.298C137.919 25.298 139.094 26.272 139.094 27.4689C139.094 28.6658 137.914 29.6399 136.475 29.6399H136.442L130.568 40.303C130.772 40.4843 130.937 40.7063 131.051 40.9548C131.164 41.2033 131.225 41.4729 131.229 41.7464C131.229 42.9432 130.055 43.9162 128.611 43.9162C128.085 43.9195 127.567 43.7848 127.109 43.5255L101.33 56.0583C101.339 56.1297 101.343 56.2016 101.343 56.2735C101.343 57.4758 100.168 58.4445 98.7235 58.4445C98.4226 58.445 98.1232 58.4011 97.835 58.3142L92.4997 62.8693H96.352C96.7813 62.1104 97.6902 61.6164 98.7246 61.6164C99.4077 61.6063 100.072 61.8393 100.6 62.2741L115.937 57.8159C116.065 56.7224 117.181 55.8613 118.542 55.8613C119.796 55.8613 120.853 56.5954 121.102 57.5834L137.344 60.7048C137.803 60.0299 138.659 59.6091 139.618 59.6091C141.061 59.6091 142.236 60.5778 142.236 61.7789C142.236 62.9801 141.056 63.9499 139.618 63.9499C138.739 63.9499 137.924 63.5818 137.444 62.9887L121.16 68.845C121.126 70.0182 119.965 70.9632 118.542 70.9632C117.221 70.9632 116.127 70.1484 115.949 69.0937L100.675 65.2361C100.136 65.7109 99.4409 65.9683 98.7235 65.9583C97.6891 65.9583 96.7748 65.4654 96.351 64.7065H93.6275L102.354 69.4004L107.576 78.4103C107.666 78.4028 107.756 78.3985 107.847 78.3985C109.291 78.3985 110.465 79.3726 110.465 80.5694C110.465 81.7663 109.291 82.7404 107.845 82.7404ZM96.9583 74.5894L106.519 79.5846L106.254 79.971C106.13 80.1463 106.063 80.3556 106.061 80.5705C106.061 81.3078 106.863 81.9062 107.847 81.9062C108.831 81.9062 109.632 81.3078 109.632 80.5705C109.632 79.8332 108.832 79.2348 107.847 79.2348C107.707 79.2352 107.568 79.2478 107.431 79.2725L107.144 79.3263L101.753 70.0257L90.3159 63.8702H96.8993L97.0066 64.1415C97.2212 64.7195 97.9305 65.1231 98.7235 65.1231C99.332 65.1231 99.8943 64.8906 100.226 64.501L100.393 64.3051L116.756 68.4414V68.7643C116.756 69.5317 117.554 70.1301 118.539 70.1301C119.524 70.1301 120.325 69.5317 120.325 68.7944C120.324 68.7388 120.318 68.6834 120.309 68.6287L120.253 68.2853L137.793 61.977L137.965 62.2859C138.246 62.7918 138.893 63.1168 139.614 63.1168C140.6 63.1168 141.4 62.5184 141.4 61.7811C141.4 61.0438 140.6 60.4464 139.614 60.4464C138.863 60.4464 138.182 60.8092 137.93 61.3495L137.792 61.6433L120.341 58.282L120.32 57.9591C120.274 57.2584 119.475 56.6879 118.539 56.6879C117.554 56.6879 116.753 57.2874 116.753 58.0236V58.3368L116.459 58.5295L100.359 63.2137L100.184 63.0275C99.846 62.6669 99.3009 62.4516 98.7246 62.4516C97.9295 62.4516 97.2223 62.8563 97.0077 63.4343L96.9004 63.7045H90.2333L97.6676 57.3606L97.9005 57.4543C98.163 57.5576 98.4426 57.6102 98.7246 57.6093C99.7097 57.6093 100.51 57.0097 100.51 56.2735C100.51 56.1662 100.491 56.0597 100.457 55.9582L100.342 55.6105L127.178 42.5644L127.38 42.7086C127.741 42.9565 128.17 43.0866 128.608 43.081C129.593 43.081 130.393 42.4826 130.393 41.7464C130.393 41.3729 130.179 41.0123 129.798 40.7561L129.482 40.5409L135.97 28.7627L136.243 28.7896C137.276 28.8972 138.258 28.2611 138.258 27.4668C138.258 26.7295 137.456 26.131 136.471 26.131C135.486 26.131 134.687 26.7295 134.687 27.4668C134.687 27.5117 134.69 27.5567 134.695 27.6013L134.742 27.9436L120.135 32.8408L119.953 32.6654C119.567 32.317 119.062 32.1299 118.542 32.1423C117.557 32.1423 116.757 32.7418 116.757 33.478C116.761 33.6283 116.795 33.7763 116.857 33.9133C116.919 34.0502 117.007 34.1734 117.117 34.2756L117.395 34.5501L99.552 55.0767L99.303 55.0121C99.1142 54.9626 98.9198 54.9376 98.7246 54.9378C97.7395 54.9378 96.939 55.5363 96.939 56.2735C96.9419 56.5042 97.0199 56.7276 97.1611 56.9096L97.3929 57.2229L90.1303 63.4203V58.1216L90.4522 58.0452C91.1894 57.8697 91.7045 57.3466 91.7045 56.7719C91.7045 56.3833 91.4727 56.012 91.0671 55.7547L90.8063 55.589L98.5669 27.5615L98.8641 27.5442C99.7891 27.4904 100.512 26.9071 100.512 26.2139C100.512 25.4777 99.7119 24.8782 98.7268 24.8782H98.4424L98.319 24.6123L90.1507 3.47976L90.5112 3.31616C91.0478 3.07399 91.3879 2.63485 91.3879 2.17095C91.3879 1.43474 90.5874 0.835229 89.6023 0.835229C88.6172 0.835229 87.8167 1.43474 87.8167 2.17095C87.8167 2.67897 88.2181 3.15148 88.8405 3.37536L89.23 3.51636L81.6851 24.8782H81.3954C80.4296 24.8911 79.6388 25.4895 79.6388 26.2128C79.6388 26.8995 80.3567 27.484 81.2731 27.5432L81.5725 27.5625L89.0518 55.5793L88.7889 55.7418C88.3704 56.0012 88.1311 56.3758 88.1311 56.7708C88.1311 57.3456 88.6462 57.8686 89.3834 58.0441L89.7054 58.1205V63.4063L82.7303 57.2401L82.9685 56.9301C83.1194 56.7444 83.2033 56.5131 83.2068 56.2735C83.2068 55.5363 82.4062 54.9378 81.4212 54.9378C81.2691 54.9384 81.1175 54.9535 80.9683 54.983L80.7108 55.0347L66.4313 35.8578L66.7264 35.6038C66.8585 35.4992 66.9663 35.3671 67.0425 35.2165C67.1187 35.066 67.1613 34.9007 67.1674 34.732C67.1674 33.9957 66.3658 33.3973 65.3818 33.3973C64.8544 33.3837 64.3424 33.5767 63.9546 33.9355L63.7754 34.1195L44.4695 27.9242L44.5114 27.5808C44.5159 27.5451 44.5184 27.5092 44.5189 27.4732C44.5189 26.7359 43.7173 26.1375 42.7333 26.1375C41.7493 26.1375 40.9477 26.7359 40.9477 27.4732C40.9477 28.2105 41.7482 28.8089 42.7333 28.8089C42.8522 28.809 42.971 28.7996 43.0885 28.7809L43.3525 28.7379L53.3997 44.0906L53.095 44.3263C52.7731 44.5793 52.5874 44.9075 52.5874 45.252C52.5874 45.9892 53.3879 46.5888 54.373 46.5888C54.851 46.5946 55.3166 46.4366 55.6929 46.141L55.8839 45.9817L79.7418 55.702L79.6624 56.0486C79.645 56.1223 79.636 56.1978 79.6355 56.2735C79.6355 57.0097 80.4361 57.6093 81.4212 57.6093C81.6924 57.6101 81.9615 57.5613 82.2152 57.465L82.4502 57.3757L89.6023 63.7045H84.8185L84.7166 63.4343C84.502 62.8563 83.7927 62.4516 82.9997 62.4516C82.3794 62.4516 81.8107 62.6917 81.4802 63.0974L81.3149 63.2976L63.7067 59.1086V58.7792C63.7067 58.0419 62.9062 57.4424 61.9222 57.4424C61.0186 57.4424 60.2385 57.9698 60.1451 58.6425L60.1022 58.9547L41.7149 61.6164L41.5829 61.3409C41.3254 60.8027 40.6494 60.4486 39.9025 60.4486C38.9174 60.4486 38.1169 61.047 38.1169 61.7832C38.1169 62.5195 38.9174 63.119 39.9025 63.119C40.5957 63.119 41.2331 62.8101 41.5261 62.33L41.6945 62.0523L60.1805 67.8516L60.1419 68.1928C60.1355 69.0323 60.9371 69.6318 61.9222 69.6318C62.8794 69.6318 63.6799 69.0474 63.7045 68.3295L63.7164 68.0066L81.2935 64.2459L81.4533 64.4525C81.7753 64.868 82.3676 65.1252 82.9975 65.1252C83.7927 65.1252 84.4998 64.7216 84.7144 64.1436L84.8164 63.8724H89.5229L78.3908 70.029L73.5619 79.4124L73.24 79.3209C72.08 78.9926 70.8384 79.6793 70.8384 80.5716C70.8384 81.3089 71.6389 81.9073 72.624 81.9073C73.6091 81.9073 74.4096 81.3089 74.4096 80.5716C74.4082 80.3926 74.3601 80.2171 74.2701 80.0625L74.0555 79.689L83.196 74.8369L89.9243 64.1135L96.9583 74.5894ZM73.9428 79.4845L78.7932 70.0688L89.465 64.1673L82.8022 74.7799L73.9428 79.4845ZM79.4156 70.6802L75.9012 77.5008L82.2152 74.1491L87.0441 66.4642L79.4156 70.6802ZM106.806 79.4748L97.2856 74.4419L90.3868 64.1705L101.358 70.0742L106.806 79.4748ZM97.9155 73.8876L104.643 77.4029L100.762 70.6984L92.9589 66.5008L97.9155 73.8876ZM116.869 68.2799L100.489 64.1382L100.509 63.7938L100.486 63.4569L100.807 63.2815L116.911 58.6006L117.085 58.7857C117.805 59.5542 119.51 59.4778 120.11 58.6608L120.266 58.4456L137.691 61.8026L120.108 68.1314L119.922 67.9613C119.188 67.2865 117.669 67.3554 117.039 68.0862L116.869 68.2799ZM102.265 63.7271L116.59 67.3478C117.508 66.4986 119.254 66.4157 120.284 67.1767L134.543 62.0491L120.603 59.3583C120.11 59.8846 119.359 60.1924 118.541 60.1924C117.858 60.2029 117.193 59.9698 116.664 59.5348L102.265 63.7271ZM63.6251 67.8397L63.4642 67.6331C62.8525 66.8441 61.2107 66.772 60.4874 67.5082L60.3072 67.689L41.5711 61.8112L60.1644 59.1204L60.3093 59.3464C60.6076 59.8136 61.2408 60.1149 61.9189 60.1149C62.5381 60.1149 63.1058 59.8749 63.4374 59.4691L63.6026 59.27L82.5822 63.7809L63.6251 67.8397ZM61.9222 66.1251C62.6741 66.1112 63.4009 66.3964 63.9439 66.9184L78.7964 63.74L63.8999 60.201C63.359 60.6928 62.6521 60.9601 61.9222 60.9491C61.0562 60.9491 60.26 60.5982 59.776 60.0202L45.3216 62.1126L60.0915 66.7408C60.614 66.3325 61.2599 66.1153 61.9222 66.1251ZM80.9994 55.9883L56.0481 45.8235L56.1307 45.4748C56.1479 45.4017 56.1569 45.327 56.1576 45.252C56.1576 44.5158 55.357 43.9162 54.372 43.9162C54.253 43.9167 54.1343 43.9261 54.0168 43.9442L53.7539 43.984L43.7055 28.6303L44.0113 28.3945C44.063 28.3546 44.1121 28.3115 44.1583 28.2654L44.3386 28.0856L63.6412 34.2767L63.6037 34.6157C63.599 34.6543 63.5965 34.6931 63.5962 34.732C63.5962 35.4692 64.3967 36.0677 65.3818 36.0677C65.5335 36.0676 65.6848 36.0524 65.8335 36.0225L66.0922 35.9708L80.9994 55.9883ZM56.9892 45.3058L78.5496 54.0875L65.7316 36.8835C65.6155 36.8969 65.4987 36.9037 65.3818 36.904C63.9943 36.904 62.8568 36.0042 62.7699 34.873L45.0694 29.1975L54.1606 43.0896C55.6425 42.9755 56.9881 43.997 56.9881 45.252C56.9903 45.2703 56.9892 45.2875 56.9892 45.3058ZM99.2794 55.8807L117.715 34.6771L117.964 34.7416C118.153 34.7912 118.347 34.8162 118.542 34.8159C119.526 34.8159 120.328 34.2164 120.328 33.4802C120.327 33.4348 120.324 33.3895 120.318 33.3446L120.273 33.0034L134.886 28.1061L135.068 28.2826C135.134 28.3475 135.206 28.4066 135.282 28.4591L135.597 28.6744L129.111 40.4483L128.84 40.4225C127.805 40.3342 126.823 40.951 126.823 41.7464C126.824 41.8533 126.842 41.9594 126.876 42.0607L126.991 42.4083L99.2794 55.8807ZM118.011 35.6059L102.587 53.3438L126.001 41.9606C125.992 41.8891 125.988 41.8173 125.987 41.7453C125.987 40.5484 127.168 39.5743 128.606 39.5743H128.639L134.379 29.1523L121.155 33.5857C121.088 34.733 119.941 35.6501 118.54 35.6501C118.363 35.6498 118.186 35.6351 118.011 35.6059ZM90.4125 55.4684L90.0745 55.4448C90.023 55.4448 89.9672 55.4448 89.9178 55.4448L89.4457 55.4684L81.9834 27.5152L82.3129 27.372C82.8666 27.1309 83.21 26.6886 83.21 26.2161C83.21 25.7758 82.9127 25.3625 82.4138 25.1096L82.0918 24.9438L89.6957 3.39796L98.025 24.9535L97.703 25.1279C97.2277 25.3808 96.9433 25.7877 96.9433 26.2161C96.9433 26.6832 97.2835 27.1234 97.8297 27.3667L98.158 27.513L90.4125 55.4684ZM82.9675 27.9715L89.935 54.0735L97.1665 27.9608C96.5055 27.555 96.1063 26.9124 96.1063 26.2161C96.1063 25.5843 96.4282 24.9966 96.9916 24.5887L89.7311 5.79817L83.107 24.5531C83.6982 24.9621 84.0427 25.5638 84.0427 26.2161C84.0427 26.92 83.6381 27.5669 82.9675 27.9715Z" fill="#1AAD81"/>
</svg>
